<?xml version="1.0" encoding="UTF-8" standalone="no"?>
<!-- Created with Inkscape (http://www.inkscape.org/) -->

<svg
   width="175.58315mm"
   height="140.19096mm"
   viewBox="0 0 175.58315 140.19096"
   version="1.1"
   id="svg5"
   xmlns:inkscape="http://www.inkscape.org/namespaces/inkscape"
   xmlns:sodipodi="http://sodipodi.sourceforge.net/DTD/sodipodi-0.dtd"
   xmlns="http://www.w3.org/2000/svg"
   xmlns:svg="http://www.w3.org/2000/svg">
  <sodipodi:namedview
     id="namedview7"
     pagecolor="#ffffff"
     bordercolor="#666666"
     borderopacity="1.0"
     inkscape:showpageshadow="2"
     inkscape:pageopacity="0.0"
     inkscape:pagecheckerboard="0"
     inkscape:deskcolor="#d1d1d1"
     inkscape:document-units="mm"
     showgrid="false" />
  <defs>
      <linearGradient id="RadialGradient1">
        <stop offset="0%" stop-color="#3eb5e6"/>
        <stop offset="100%" stop-color="#f22e76"/>
      </linearGradient>
      <linearGradient id="RadialGradient2" cx="0.25" cy="0.25" r="0.25">
        <stop offset="0%" stop-color="red"/>
        <stop offset="100%" stop-color="blue"/>
      </linearGradient>
  </defs>
  <g
     inkscape:label="Layer 1"
     inkscape:groupmode="layer"
     id="layer1"
     transform="translate(-34.968194,-157.76991)"
     fill="url(#RadialGradient1)">
    <path
       style="opacity:0.99;fill:none;stroke:none;stroke-width:7.72435;stroke-dashoffset:1.20189"
       d="m 195.53585,1123.6272 c 7.90513,-34.3176 14.55781,-58.0573 22.62649,-80.7413 22.62935,-63.61931 52.66027,-113.22132 93.06085,-153.70842 36.48347,-36.56162 76.72125,-61.3689 128.20465,-79.04037 28.98228,-9.94806 54.72178,-15.65177 103.13615,-22.85434 52.55685,-7.81883 71.04131,-12.70268 99.7475,-26.35466 42.65189,-20.28424 81.59721,-50.07466 123.71813,-94.63568 13.33623,-14.10881 24.36556,-25.56551 24.50961,-25.45932 0.37187,0.27413 0.40683,480.65569 0.035,481.02749 -0.16874,0.1687 -104.29755,0.7756 -231.39735,1.3486 -127.09981,0.5729 -261.00768,1.3063 -297.57306,1.6296 -63.92551,0.5654 -66.46656,0.5188 -66.06797,-1.2116 z"
       id="path733"
       transform="scale(0.26458333)" />
    <path
       style="opacity:0.99;fill:none;stroke:none;stroke-width:7.72435;stroke-dashoffset:1.20189"
       d="m 195.53585,1123.6272 c 7.90513,-34.3176 14.55781,-58.0573 22.62649,-80.7413 22.62935,-63.61931 52.66027,-113.22132 93.06085,-153.70842 36.48347,-36.56162 76.72125,-61.3689 128.20465,-79.04037 28.98228,-9.94806 54.72178,-15.65177 103.13615,-22.85434 52.55685,-7.81883 71.04131,-12.70268 99.7475,-26.35466 42.65189,-20.28424 81.59721,-50.07466 123.71813,-94.63568 13.33623,-14.10881 24.36556,-25.56551 24.50961,-25.45932 0.37187,0.27413 0.40683,480.65569 0.035,481.02749 -0.16874,0.1687 -104.29755,0.7756 -231.39735,1.3486 -127.09981,0.5729 -261.00768,1.3063 -297.57306,1.6296 -63.92551,0.5654 -66.46656,0.5188 -66.06797,-1.2116 z"
       id="path873"
       transform="scale(0.26458333)" />
    <path
       style="opacity:0.99;fill:none;stroke:#79aab4;stroke-width:0;stroke-dasharray:none;stroke-dashoffset:1.20189;stroke-opacity:1;paint-order:stroke markers fill"
       d="m 34.976567,285.50938 c 2.091565,-9.07986 3.851753,-15.36099 5.986592,-21.3628 5.987348,-16.83261 13.933029,-29.95647 24.622349,-40.66868 9.652918,-9.6736 20.299164,-16.23719 33.920813,-20.91277 7.668229,-2.63209 14.478469,-4.1412 27.288109,-6.04688 13.90566,-2.06873 18.79634,-3.36091 26.39152,-6.973 11.28498,-5.36687 21.58926,-13.24892 32.73376,-25.03902 3.52854,-3.73296 6.44672,-6.76421 6.48483,-6.73612 0.0984,0.0725 0.10764,127.17349 0.009,127.27186 -0.0446,0.0446 -27.59539,0.20521 -61.22388,0.35682 -33.62849,0.15158 -69.05828,0.34562 -78.73287,0.43116 -16.913624,0.1496 -17.585944,0.13727 -17.480483,-0.32057 z"
       id="path875" />
    <path
       style="opacity:0.99;fill:url(#RadialGradient1);fill-opacity:1;stroke:none;stroke-width:0;stroke-dasharray:none;stroke-dashoffset:1.20189;stroke-opacity:1;paint-order:stroke markers fill"
       d="m 53.04482,297.55488 c 2.091566,-9.07987 3.851754,-15.361 5.986592,-21.36281 5.987349,-16.8326 13.93303,-29.95647 24.622347,-40.66868 9.652921,-9.67359 20.299161,-16.23719 33.920811,-20.91276 7.66823,-2.63209 14.47848,-4.1412 27.28811,-6.04688 13.90567,-2.06873 18.79635,-3.36092 26.39153,-6.973 11.28498,-5.36687 21.58926,-13.24892 32.73375,-25.03902 3.52855,-3.73296 6.44673,-6.76421 6.48484,-6.73612 0.0984,0.0725 0.10764,127.17348 0.009,127.27185 -0.0446,0.0447 -27.59539,0.20521 -61.22388,0.35682 -33.6285,0.15158 -69.058286,0.34563 -78.732876,0.43119 -16.913625,0.14957 -17.585944,0.13724 -17.480484,-0.32059 z"
       id="path1962" />
  </g>
</svg>
